# Blender 5.1.0
# www.blender.org
mtllib wheel.mtl
o Cylinder.010
v 0.793535 -0.035891 0.259885
v 0.581977 -0.046655 0.259885
v 0.805328 -0.068257 0.263075
v 0.593770 -0.079021 0.263075
v 0.816668 -0.099379 0.272522
v 0.605110 -0.110142 0.272522
v 0.827119 -0.128061 0.287864
v 0.615561 -0.138824 0.287864
v 0.836280 -0.153201 0.308510
v 0.624722 -0.163964 0.308510
v 0.843798 -0.173832 0.333667
v 0.632239 -0.184596 0.333668
v 0.849384 -0.189163 0.362369
v 0.637826 -0.199927 0.362370
v 0.852824 -0.198604 0.393513
v 0.641266 -0.209368 0.393513
v 0.853985 -0.201792 0.425901
v 0.642427 -0.212555 0.425901
v 0.852824 -0.198604 0.458289
v 0.641266 -0.209368 0.458290
v 0.849384 -0.189163 0.489433
v 0.637826 -0.199927 0.489433
v 0.843798 -0.173832 0.518135
v 0.632240 -0.184596 0.518135
v 0.836280 -0.153201 0.543293
v 0.624722 -0.163964 0.543293
v 0.827120 -0.128061 0.563939
v 0.615562 -0.138824 0.563939
v 0.816669 -0.099379 0.579280
v 0.605111 -0.110142 0.579280
v 0.805329 -0.068257 0.588728
v 0.593770 -0.079021 0.588728
v 0.793535 -0.035891 0.591918
v 0.581977 -0.046655 0.591918
v 0.781742 -0.003526 0.588728
v 0.570184 -0.014289 0.588728
v 0.770402 0.027596 0.579280
v 0.558844 0.016832 0.579280
v 0.759951 0.056278 0.563939
v 0.548393 0.045514 0.563939
v 0.750790 0.081418 0.543293
v 0.539232 0.070654 0.543293
v 0.743272 0.102050 0.518135
v 0.531714 0.091286 0.518135
v 0.737686 0.117381 0.489433
v 0.526128 0.106617 0.489433
v 0.734246 0.126822 0.458289
v 0.522688 0.116058 0.458290
v 0.733085 0.130009 0.425901
v 0.521527 0.119246 0.425901
v 0.734246 0.126822 0.393513
v 0.522688 0.116058 0.393513
v 0.737686 0.117381 0.362370
v 0.526128 0.106617 0.362370
v 0.743272 0.102050 0.333667
v 0.531714 0.091286 0.333668
v 0.750790 0.081418 0.308510
v 0.539232 0.070654 0.308510
v 0.759950 0.056278 0.287864
v 0.548392 0.045514 0.287864
v 0.770401 0.027596 0.272522
v 0.558843 0.016832 0.272522
v 0.781741 -0.003526 0.263075
v 0.570183 -0.014289 0.263075
v 0.755488 -0.037827 0.234324
v 0.620022 -0.044719 0.234324
v 0.633631 -0.082068 0.238005
v 0.769097 -0.075176 0.238005
v 0.646717 -0.117982 0.248907
v 0.782183 -0.111089 0.248907
v 0.658778 -0.151080 0.266610
v 0.794244 -0.144188 0.266610
v 0.669349 -0.180091 0.290435
v 0.804815 -0.173198 0.290435
v 0.678024 -0.203899 0.319466
v 0.813490 -0.197007 0.319466
v 0.684470 -0.221590 0.352588
v 0.819936 -0.214698 0.352588
v 0.688440 -0.232485 0.388526
v 0.823906 -0.225592 0.388526
v 0.689780 -0.236163 0.425901
v 0.825246 -0.229271 0.425901
v 0.688440 -0.232485 0.463276
v 0.823906 -0.225592 0.463276
v 0.684471 -0.221590 0.499215
v 0.819936 -0.214698 0.499215
v 0.678024 -0.203899 0.532336
v 0.813490 -0.197007 0.532336
v 0.669349 -0.180091 0.561367
v 0.804815 -0.173198 0.561367
v 0.658778 -0.151080 0.585192
v 0.794244 -0.144188 0.585192
v 0.646718 -0.117982 0.602896
v 0.782184 -0.111089 0.602896
v 0.633632 -0.082068 0.613798
v 0.769098 -0.075176 0.613798
v 0.620023 -0.044719 0.617479
v 0.755489 -0.037827 0.617479
v 0.606414 -0.007370 0.613798
v 0.741880 -0.000478 0.613798
v 0.593328 0.028543 0.602896
v 0.728794 0.035436 0.602896
v 0.581267 0.061641 0.585193
v 0.716733 0.068534 0.585192
v 0.570697 0.090652 0.561367
v 0.706163 0.097544 0.561367
v 0.562021 0.114461 0.532336
v 0.697487 0.121353 0.532336
v 0.555575 0.132152 0.499215
v 0.691041 0.139044 0.499215
v 0.551605 0.143046 0.463276
v 0.687071 0.149939 0.463276
v 0.550265 0.146725 0.425901
v 0.685731 0.153617 0.425901
v 0.551605 0.143046 0.388526
v 0.687071 0.149939 0.388526
v 0.555575 0.132152 0.352588
v 0.691041 0.139044 0.352588
v 0.562021 0.114461 0.319467
v 0.697487 0.121353 0.319466
v 0.570696 0.090652 0.290435
v 0.706162 0.097544 0.290435
v 0.581267 0.061641 0.266610
v 0.716733 0.068534 0.266610
v 0.593327 0.028543 0.248907
v 0.728793 0.035436 0.248907
v 0.606413 -0.007370 0.238005
v 0.741879 -0.000478 0.238005
vn -0.5272 -0.2715 -0.8052
vn -0.5071 -0.4142 -0.7559
vn -0.4895 -0.5432 -0.6821
vn -0.4747 -0.6554 -0.5874
vn -0.4629 -0.7482 -0.4753
vn -0.4540 -0.8196 -0.3494
vn -0.4480 -0.8681 -0.2137
vn -0.4450 -0.8926 -0.0719
vn -0.4450 -0.8926 0.0719
vn -0.4480 -0.8681 0.2137
vn -0.4540 -0.8196 0.3495
vn -0.4629 -0.7482 0.4753
vn -0.4747 -0.6554 0.5874
vn -0.4895 -0.5432 0.6821
vn -0.5071 -0.4142 0.7559
vn -0.5272 -0.2715 0.8052
vn -0.5496 -0.1187 0.8270
vn -0.5737 0.0393 0.8182
vn -0.5986 0.1971 0.7764
vn -0.6234 0.3479 0.7002
vn -0.6464 0.4838 0.5900
vn -0.6660 0.5963 0.4481
vn -0.6803 0.6771 0.2804
vn -0.6879 0.7195 0.0955
vn -0.6879 0.7195 -0.0955
vn -0.6803 0.6771 -0.2804
vn -0.6660 0.5963 -0.4481
vn -0.6464 0.4838 -0.5900
vn -0.6234 0.3479 -0.7002
vn -0.5986 0.1971 -0.7764
vn -0.9396 -0.3424 -0.0000
vn -0.5737 0.0393 -0.8182
vn -0.5496 -0.1187 -0.8270
vn 0.9396 0.3424 -0.0000
vn 0.5272 0.2715 -0.8052
vn -0.0049 0.0963 -0.9953
vn 0.5070 0.4142 -0.7559
vn -0.0145 0.2856 -0.9582
vn 0.4895 0.5432 -0.6821
vn -0.0236 0.4648 -0.8851
vn 0.4747 0.6554 -0.5874
vn -0.0319 0.6274 -0.7781
vn 0.4629 0.7482 -0.4753
vn -0.0390 0.7669 -0.6406
vn 0.4539 0.8196 -0.3495
vn -0.0446 0.8775 -0.4774
vn 0.4480 0.8681 -0.2137
vn -0.0486 0.9544 -0.2947
vn 0.4450 0.8926 -0.0719
vn -0.0506 0.9937 -0.0996
vn 0.4450 0.8926 0.0719
vn -0.0506 0.9937 0.0996
vn 0.4480 0.8681 0.2137
vn -0.0486 0.9544 0.2947
vn 0.4539 0.8196 0.3495
vn -0.0446 0.8775 0.4774
vn 0.4629 0.7482 0.4753
vn -0.0390 0.7669 0.6406
vn 0.4747 0.6554 0.5874
vn -0.0319 0.6274 0.7781
vn 0.4895 0.5432 0.6821
vn -0.0236 0.4648 0.8851
vn 0.5070 0.4142 0.7559
vn -0.0145 0.2856 0.9582
vn 0.5272 0.2715 0.8052
vn -0.0049 0.0963 0.9953
vn 0.5496 0.1187 0.8270
vn 0.0049 -0.0963 0.9953
vn 0.5736 -0.0393 0.8182
vn 0.0145 -0.2856 0.9582
vn 0.5986 -0.1972 0.7764
vn 0.0236 -0.4648 0.8851
vn 0.6234 -0.3479 0.7002
vn 0.0319 -0.6274 0.7781
vn 0.6464 -0.4838 0.5900
vn 0.0390 -0.7669 0.6406
vn 0.6660 -0.5963 0.4481
vn 0.0446 -0.8775 0.4774
vn 0.6803 -0.6771 0.2804
vn 0.0486 -0.9544 0.2947
vn 0.6879 -0.7195 0.0955
vn 0.0506 -0.9937 0.0996
vn 0.6879 -0.7195 -0.0955
vn 0.0506 -0.9937 -0.0996
vn 0.6803 -0.6771 -0.2804
vn 0.0486 -0.9544 -0.2947
vn 0.6660 -0.5963 -0.4482
vn 0.0446 -0.8775 -0.4774
vn 0.6464 -0.4838 -0.5900
vn 0.0390 -0.7669 -0.6406
vn 0.6234 -0.3479 -0.7002
vn 0.0319 -0.6274 -0.7781
vn 0.5986 -0.1971 -0.7764
vn 0.0236 -0.4648 -0.8851
vn 0.5736 -0.0393 -0.8182
vn 0.0145 -0.2856 -0.9582
vn 0.5496 0.1187 -0.8270
vn 0.0049 -0.0963 -0.9953
vt 1.000000 0.833333
vt 0.968750 0.833333
vt 0.968750 1.000000
vt 1.000000 1.000000
vt 0.937500 0.833333
vt 0.937500 1.000000
vt 0.906250 0.833333
vt 0.906250 1.000000
vt 0.875000 0.833333
vt 0.875000 1.000000
vt 0.843750 0.833333
vt 0.843750 1.000000
vt 0.812500 0.833333
vt 0.812500 1.000000
vt 0.781250 0.833333
vt 0.781250 1.000000
vt 0.750000 0.833333
vt 0.750000 1.000000
vt 0.718750 0.833333
vt 0.718750 1.000000
vt 0.687500 0.833333
vt 0.687500 1.000000
vt 0.656250 0.833333
vt 0.656250 1.000000
vt 0.625000 0.833333
vt 0.625000 1.000000
vt 0.593750 0.833333
vt 0.593750 1.000000
vt 0.562500 0.833333
vt 0.562500 1.000000
vt 0.531250 0.833333
vt 0.531250 1.000000
vt 0.500000 0.833333
vt 0.500000 1.000000
vt 0.468750 0.833333
vt 0.468750 1.000000
vt 0.437500 0.833333
vt 0.437500 1.000000
vt 0.406250 0.833333
vt 0.406250 1.000000
vt 0.375000 0.833333
vt 0.375000 1.000000
vt 0.343750 0.833333
vt 0.343750 1.000000
vt 0.312500 0.833333
vt 0.312500 1.000000
vt 0.281250 0.833333
vt 0.281250 1.000000
vt 0.250000 0.833333
vt 0.250000 1.000000
vt 0.218750 0.833333
vt 0.218750 1.000000
vt 0.187500 0.833333
vt 0.187500 1.000000
vt 0.156250 0.833333
vt 0.156250 1.000000
vt 0.125000 0.833333
vt 0.125000 1.000000
vt 0.093750 0.833333
vt 0.093750 1.000000
vt 0.062500 0.833333
vt 0.062500 1.000000
vt 0.296822 0.485388
vt 0.341844 0.471731
vt 0.383337 0.449553
vt 0.419706 0.419706
vt 0.449553 0.383337
vt 0.471731 0.341844
vt 0.485388 0.296822
vt 0.490000 0.250000
vt 0.485388 0.203178
vt 0.471731 0.158156
vt 0.449553 0.116663
vt 0.419706 0.080294
vt 0.383337 0.050447
vt 0.341844 0.028269
vt 0.296822 0.014612
vt 0.250000 0.010000
vt 0.203178 0.014612
vt 0.158156 0.028269
vt 0.116663 0.050447
vt 0.080294 0.080294
vt 0.050447 0.116663
vt 0.028269 0.158156
vt 0.014612 0.203178
vt 0.010000 0.250000
vt 0.014612 0.296822
vt 0.028269 0.341844
vt 0.050447 0.383337
vt 0.080294 0.419706
vt 0.116663 0.449553
vt 0.158156 0.471731
vt 0.203178 0.485388
vt 0.250000 0.490000
vt 0.031250 0.833333
vt 0.031250 1.000000
vt 0.000000 0.833333
vt 0.000000 1.000000
vt 0.750000 0.490000
vt 0.703178 0.485388
vt 0.658156 0.471731
vt 0.616663 0.449553
vt 0.580294 0.419706
vt 0.550447 0.383337
vt 0.528269 0.341844
vt 0.514612 0.296822
vt 0.510000 0.250000
vt 0.514612 0.203178
vt 0.528269 0.158156
vt 0.550447 0.116663
vt 0.580294 0.080294
vt 0.616663 0.050447
vt 0.658156 0.028269
vt 0.703178 0.014612
vt 0.750000 0.010000
vt 0.796822 0.014612
vt 0.841844 0.028269
vt 0.883337 0.050447
vt 0.919706 0.080294
vt 0.949553 0.116663
vt 0.971731 0.158156
vt 0.985388 0.203178
vt 0.990000 0.250000
vt 0.985388 0.296822
vt 0.971731 0.341844
vt 0.949553 0.383337
vt 0.919706 0.419706
vt 0.883337 0.449553
vt 0.841844 0.471731
vt 0.796822 0.485388
vt 0.031250 0.500000
vt 0.000000 0.500000
vt 0.000000 0.666667
vt 0.031250 0.666667
vt 0.062500 0.500000
vt 0.062500 0.666667
vt 0.093750 0.500000
vt 0.093750 0.666667
vt 0.125000 0.500000
vt 0.125000 0.666667
vt 0.156250 0.500000
vt 0.156250 0.666667
vt 0.187500 0.500000
vt 0.187500 0.666667
vt 0.218750 0.500000
vt 0.218750 0.666667
vt 0.250000 0.500000
vt 0.250000 0.666667
vt 0.281250 0.500000
vt 0.281250 0.666667
vt 0.312500 0.500000
vt 0.312500 0.666667
vt 0.343750 0.500000
vt 0.343750 0.666667
vt 0.375000 0.500000
vt 0.375000 0.666667
vt 0.406250 0.500000
vt 0.406250 0.666667
vt 0.437500 0.500000
vt 0.437500 0.666667
vt 0.468750 0.500000
vt 0.468750 0.666667
vt 0.500000 0.500000
vt 0.500000 0.666667
vt 0.531250 0.500000
vt 0.531250 0.666667
vt 0.562500 0.500000
vt 0.562500 0.666667
vt 0.593750 0.500000
vt 0.593750 0.666667
vt 0.625000 0.500000
vt 0.625000 0.666667
vt 0.656250 0.500000
vt 0.656250 0.666667
vt 0.687500 0.500000
vt 0.687500 0.666667
vt 0.718750 0.500000
vt 0.718750 0.666667
vt 0.750000 0.500000
vt 0.750000 0.666667
vt 0.781250 0.500000
vt 0.781250 0.666667
vt 0.812500 0.500000
vt 0.812500 0.666667
vt 0.843750 0.500000
vt 0.843750 0.666667
vt 0.875000 0.500000
vt 0.875000 0.666667
vt 0.906250 0.500000
vt 0.906250 0.666667
vt 0.937500 0.500000
vt 0.937500 0.666667
vt 0.968750 0.500000
vt 0.968750 0.666667
vt 1.000000 0.500000
vt 1.000000 0.666667
s 0
usemtl Tires
f 66/1/1 67/2/1 4/3/1 2/4/1
f 67/2/2 69/5/2 6/6/2 4/3/2
f 69/5/3 71/7/3 8/8/3 6/6/3
f 71/7/4 73/9/4 10/10/4 8/8/4
f 73/9/5 75/11/5 12/12/5 10/10/5
f 75/11/6 77/13/6 14/14/6 12/12/6
f 77/13/7 79/15/7 16/16/7 14/14/7
f 79/15/8 81/17/8 18/18/8 16/16/8
f 81/17/9 83/19/9 20/20/9 18/18/9
f 83/19/10 85/21/10 22/22/10 20/20/10
f 85/21/11 87/23/11 24/24/11 22/22/11
f 87/23/12 89/25/12 26/26/12 24/24/12
f 89/25/13 91/27/13 28/28/13 26/26/13
f 91/27/14 93/29/14 30/30/14 28/28/14
f 93/29/15 95/31/15 32/32/15 30/30/15
f 95/31/16 97/33/16 34/34/16 32/32/16
f 97/33/17 99/35/17 36/36/17 34/34/17
f 99/35/18 101/37/18 38/38/18 36/36/18
f 101/37/19 103/39/19 40/40/19 38/38/19
f 103/39/20 105/41/20 42/42/20 40/40/20
f 105/41/21 107/43/21 44/44/21 42/42/21
f 107/43/22 109/45/22 46/46/22 44/44/22
f 109/45/23 111/47/23 48/48/23 46/46/23
f 111/47/24 113/49/24 50/50/24 48/48/24
f 113/49/25 115/51/25 52/52/25 50/50/25
f 115/51/26 117/53/26 54/54/26 52/52/26
f 117/53/27 119/55/27 56/56/27 54/54/27
f 119/55/28 121/57/28 58/58/28 56/56/28
f 121/57/29 123/59/29 60/60/29 58/58/29
f 123/59/30 125/61/30 62/62/30 60/60/30
f 4/63/31 6/64/31 8/65/31 10/66/31 12/67/31 14/68/31 16/69/31 18/70/31 20/71/31 22/72/31 24/73/31 26/74/31 28/75/31 30/76/31 32/77/31 34/78/31 36/79/31 38/80/31 40/81/31 42/82/31 44/83/31 46/84/31 48/85/31 50/86/31 52/87/31 54/88/31 56/89/31 58/90/31 60/91/31 62/92/31 64/93/31 2/94/31
f 125/61/32 127/95/32 64/96/32 62/62/32
f 127/95/33 66/97/33 2/98/33 64/96/33
f 1/99/34 63/100/34 61/101/34 59/102/34 57/103/34 55/104/34 53/105/34 51/106/34 49/107/34 47/108/34 45/109/34 43/110/34 41/111/34 39/112/34 37/113/34 35/114/34 33/115/34 31/116/34 29/117/34 27/118/34 25/119/34 23/120/34 21/121/34 19/122/34 17/123/34 15/124/34 13/125/34 11/126/34 9/127/34 7/128/34 5/129/34 3/130/34
f 63/131/35 1/132/35 65/133/35 128/134/35
f 128/134/36 65/133/36 66/97/36 127/95/36
f 61/135/37 63/131/37 128/134/37 126/136/37
f 126/136/38 128/134/38 127/95/38 125/61/38
f 59/137/39 61/135/39 126/136/39 124/138/39
f 124/138/40 126/136/40 125/61/40 123/59/40
f 57/139/41 59/137/41 124/138/41 122/140/41
f 122/140/42 124/138/42 123/59/42 121/57/42
f 55/141/43 57/139/43 122/140/43 120/142/43
f 120/142/44 122/140/44 121/57/44 119/55/44
f 53/143/45 55/141/45 120/142/45 118/144/45
f 118/144/46 120/142/46 119/55/46 117/53/46
f 51/145/47 53/143/47 118/144/47 116/146/47
f 116/146/48 118/144/48 117/53/48 115/51/48
f 49/147/49 51/145/49 116/146/49 114/148/49
f 114/148/50 116/146/50 115/51/50 113/49/50
f 47/149/51 49/147/51 114/148/51 112/150/51
f 112/150/52 114/148/52 113/49/52 111/47/52
f 45/151/53 47/149/53 112/150/53 110/152/53
f 110/152/54 112/150/54 111/47/54 109/45/54
f 43/153/55 45/151/55 110/152/55 108/154/55
f 108/154/56 110/152/56 109/45/56 107/43/56
f 41/155/57 43/153/57 108/154/57 106/156/57
f 106/156/58 108/154/58 107/43/58 105/41/58
f 39/157/59 41/155/59 106/156/59 104/158/59
f 104/158/60 106/156/60 105/41/60 103/39/60
f 37/159/61 39/157/61 104/158/61 102/160/61
f 102/160/62 104/158/62 103/39/62 101/37/62
f 35/161/63 37/159/63 102/160/63 100/162/63
f 100/162/64 102/160/64 101/37/64 99/35/64
f 33/163/65 35/161/65 100/162/65 98/164/65
f 98/164/66 100/162/66 99/35/66 97/33/66
f 31/165/67 33/163/67 98/164/67 96/166/67
f 96/166/68 98/164/68 97/33/68 95/31/68
f 29/167/69 31/165/69 96/166/69 94/168/69
f 94/168/70 96/166/70 95/31/70 93/29/70
f 27/169/71 29/167/71 94/168/71 92/170/71
f 92/170/72 94/168/72 93/29/72 91/27/72
f 25/171/73 27/169/73 92/170/73 90/172/73
f 90/172/74 92/170/74 91/27/74 89/25/74
f 23/173/75 25/171/75 90/172/75 88/174/75
f 88/174/76 90/172/76 89/25/76 87/23/76
f 21/175/77 23/173/77 88/174/77 86/176/77
f 86/176/78 88/174/78 87/23/78 85/21/78
f 19/177/79 21/175/79 86/176/79 84/178/79
f 84/178/80 86/176/80 85/21/80 83/19/80
f 17/179/81 19/177/81 84/178/81 82/180/81
f 82/180/82 84/178/82 83/19/82 81/17/82
f 15/181/83 17/179/83 82/180/83 80/182/83
f 80/182/84 82/180/84 81/17/84 79/15/84
f 13/183/85 15/181/85 80/182/85 78/184/85
f 78/184/86 80/182/86 79/15/86 77/13/86
f 11/185/87 13/183/87 78/184/87 76/186/87
f 76/186/88 78/184/88 77/13/88 75/11/88
f 9/187/89 11/185/89 76/186/89 74/188/89
f 74/188/90 76/186/90 75/11/90 73/9/90
f 7/189/91 9/187/91 74/188/91 72/190/91
f 72/190/92 74/188/92 73/9/92 71/7/92
f 5/191/93 7/189/93 72/190/93 70/192/93
f 70/192/94 72/190/94 71/7/94 69/5/94
f 3/193/95 5/191/95 70/192/95 68/194/95
f 68/194/96 70/192/96 69/5/96 67/2/96
f 1/195/97 3/193/97 68/194/97 65/196/97
f 65/196/98 68/194/98 67/2/98 66/1/98
